<?xml version="1.0" encoding="utf-8"?><!-- Uploaded to: SVG Repo, www.svgrepo.com, Generator: SVG Repo Mixer Tools -->
<svg fill="#000000" width="800px" height="800px" viewBox="0 0 24 24" id="goal-2" data-name="Flat Color" xmlns="http://www.w3.org/2000/svg" class="icon flat-color"><path id="secondary" d="M18.12,6l.77-1.55A1,1,0,0,0,18,3H13a1,1,0,0,0-2,0v8a1,1,0,0,0,2,0V9h5a1,1,0,0,0,.89-1.45Z" style="fill: rgb(44, 169, 188);"></path><path id="primary" d="M19.48,18.75h0l-6.7-8.37a1,1,0,0,0-1.56,0l-6.7,8.37A2,2,0,0,0,6.08,22H17.92a2,2,0,0,0,1.56-3.25Z" style="fill: rgb(0, 0, 0);"></path></svg>